<svg width="300" height="300" viewBox="0 0 300 300" fill="none" xmlns="http://www.w3.org/2000/svg">
<path d="M90.3754 100.593C83.1754 98.9932 75.3753 121.593 76.3754 130.593C88.8753 133.093 105.057 125.593 106.875 121.593C109.375 116.093 99.3754 102.593 90.3754 100.593Z" fill="url(#paint0_linear_20_189)"/>
<path d="M133.375 92.0931C128.029 90.8897 118.633 108.824 119.375 115.593C128.656 117.473 145.025 114.102 146.375 111.093C148.232 106.956 140.058 93.5974 133.375 92.0931Z" fill="url(#paint1_linear_20_189)"/>
<path d="M183.008 98.0932C179.462 93.9152 162.356 105.74 158.875 111.593C165.157 118.68 180.987 121.684 183.875 120.093C187.847 117.906 187.44 103.316 183.008 98.0932Z" fill="url(#paint2_linear_20_189)"/>
<path d="M221.375 128.093C220.673 122.659 203.48 123.575 197.375 126.593C198.79 135.957 207.375 144.593 213.375 144.593C219.375 144.593 222.253 134.886 221.375 128.093Z" fill="url(#paint3_linear_20_189)"/>
<path d="M243.875 163.093C243.439 158.873 231.157 159.558 225.875 162.093C226.802 169.359 232.772 176.77 237.875 176.593C242.979 176.416 244.421 168.369 243.875 163.093Z" fill="url(#paint4_linear_20_189)"/>
<path fill-rule="evenodd" clip-rule="evenodd" d="M138.375 39.5933C138.209 33.7599 135.361 21.1678 127.875 16.5932C118.875 11.0931 104.375 6.59314 63.3754 27.5932C20.1327 49.742 5.06658 83.0931 11.3754 122.093C16.8754 156.093 37.8754 183.093 47.3754 193.593C51.1605 197.777 54.39 201.087 57.5699 204.347C62.371 209.268 67.0589 214.074 73.3754 221.593C73.6929 221.971 74.0087 222.346 74.3224 222.719C84.3817 234.661 92.3754 244.152 92.3754 278.093C92.8754 283.093 99.8754 291.393 123.875 284.593C130.375 282.751 142.875 264.593 137.875 243.093L182.375 238.093V278.093C185.209 282.093 196.475 287.893 212.875 283.093C224.749 278.344 224.717 263.256 224.685 247.501C224.676 243.352 224.667 239.158 224.875 235.093C237.209 239.427 268.575 242.993 283.375 224.593C298.175 206.193 284.542 178.427 277.375 166.593C277.542 177.093 273.075 197.693 253.875 196.093C232.329 194.298 219.814 172.353 210.458 155.945C209.392 154.077 208.368 152.28 207.375 150.593C202.375 142.093 183.375 118.593 140.375 123.593C124.423 125.448 112.272 131.145 101.946 135.987C93.1766 140.099 85.7233 143.593 78.3754 143.593C64.5355 143.593 43.3754 121.593 54.3754 90.0932C65.3754 58.5932 96.3754 55.0932 113.875 62.0932C117.87 63.6911 121.418 65.3216 124.586 66.7779C135.299 71.7013 141.681 74.6346 146.375 67.5933C156.375 52.5932 146.875 44.0933 138.375 39.5933ZM124.875 44.0931C128.465 44.0931 131.375 41.183 131.375 37.5931C131.375 34.0033 128.465 31.0931 124.875 31.0931C121.286 31.0931 118.375 34.0033 118.375 37.5931C118.375 41.183 121.286 44.0931 124.875 44.0931Z" fill="url(#paint5_linear_20_189)"/>
<path d="M80.8754 248.593C79.6754 234.193 64.3754 220.26 56.8754 215.093C56.5421 221.093 55.5754 234.793 54.3754 241.593C52.8754 250.093 47.8754 266.593 50.8754 273.593C53.8754 280.593 78.8754 282.093 80.8754 278.593C82.8754 275.093 82.3754 266.593 80.8754 248.593Z" fill="url(#paint6_linear_20_189)"/>
<path d="M176.375 244.093L146.375 247.593C145.875 254.926 144.975 270.693 145.375 275.093C145.875 280.593 161.875 278.593 167.875 277.593C172.675 276.793 173.583 271.85 174.375 267.093C176.375 255.093 176.375 244.093 176.375 244.093Z" fill="url(#paint7_linear_20_189)"/>
<defs>
<linearGradient id="paint0_linear_20_189" x1="76.2883" y1="134.316" x2="243.984" y2="134.316" gradientUnits="userSpaceOnUse">
<stop stop-color="#0EA5E9"/>
<stop offset="1" stop-color="#3B82F6"/>
</linearGradient>
<linearGradient id="paint1_linear_20_189" x1="76.2883" y1="134.316" x2="243.984" y2="134.316" gradientUnits="userSpaceOnUse">
<stop stop-color="#0EA5E9"/>
<stop offset="1" stop-color="#3B82F6"/>
</linearGradient>
<linearGradient id="paint2_linear_20_189" x1="76.2883" y1="134.316" x2="243.984" y2="134.316" gradientUnits="userSpaceOnUse">
<stop stop-color="#0EA5E9"/>
<stop offset="1" stop-color="#3B82F6"/>
</linearGradient>
<linearGradient id="paint3_linear_20_189" x1="76.2883" y1="134.316" x2="243.984" y2="134.316" gradientUnits="userSpaceOnUse">
<stop stop-color="#0EA5E9"/>
<stop offset="1" stop-color="#3B82F6"/>
</linearGradient>
<linearGradient id="paint4_linear_20_189" x1="76.2883" y1="134.316" x2="243.984" y2="134.316" gradientUnits="userSpaceOnUse">
<stop stop-color="#0EA5E9"/>
<stop offset="1" stop-color="#3B82F6"/>
</linearGradient>
<linearGradient id="paint5_linear_20_189" x1="10" y1="149.58" x2="289.994" y2="149.58" gradientUnits="userSpaceOnUse">
<stop stop-color="#0EA5E9"/>
<stop offset="1" stop-color="#3B82F6"/>
</linearGradient>
<linearGradient id="paint6_linear_20_189" x1="10" y1="149.58" x2="289.994" y2="149.58" gradientUnits="userSpaceOnUse">
<stop stop-color="#0EA5E9"/>
<stop offset="1" stop-color="#3B82F6"/>
</linearGradient>
<linearGradient id="paint7_linear_20_189" x1="10" y1="149.58" x2="289.994" y2="149.58" gradientUnits="userSpaceOnUse">
<stop stop-color="#0EA5E9"/>
<stop offset="1" stop-color="#3B82F6"/>
</linearGradient>
</defs>
</svg>
