<svg xmlns="http://www.w3.org/2000/svg" width="24" height="24" viewBox="0 0 24 24" fill="none">
  <path d="M13 2V3H12V9H11V10H9V11H8V12H7V13H5V12H4V11H3V9H2V15H3V16H4V17H5V18H6V22H8V21H7V20H8V19H9V18H10V19H11V22H13V21H12V17H13V16H14V15H15V12H16V13H17V11H15V9H20V8H17V7H22V3H21V2M14 3H15V4H14V3Z" fill="url(#paint0_linear_1_2)"/>
  <defs>
    <linearGradient id="paint0_linear_1_2" x1="12" y1="2" x2="12" y2="22" gradientUnits="userSpaceOnUse">
      <stop stop-color="#A855F7"/>
      <stop offset="1" stop-color="#3B82F6"/>
    </linearGradient>
  </defs>
</svg>