<svg width="51" height="48" viewBox="0 0 51 48" fill="none" xmlns="http://www.w3.org/2000/svg">
<g id="isotype">
<g id="contrast">
<path d="M16.7067 14.9161C15.4945 14.6467 14.1812 18.4518 14.3496 19.9671C16.4542 20.388 19.1787 19.1252 19.4848 18.4518C19.9057 17.5258 18.222 15.2528 16.7067 14.9161Z" fill="#FBBF24"/>
<path d="M23.9465 13.485C23.0464 13.2824 21.4643 16.3019 21.5894 17.4416C23.152 17.7582 25.9079 17.1905 26.1352 16.6839C26.4478 15.9874 25.0716 13.7382 23.9465 13.485Z" fill="#FBBF24"/>
<path d="M32.3029 14.4952C31.7059 13.7917 28.8258 15.7826 28.2398 16.7681C29.2974 17.9612 31.9626 18.467 32.449 18.1992C33.1177 17.831 33.0491 15.3745 32.3029 14.4952Z" fill="#FBBF24"/>
<path d="M38.7627 19.5461C38.6445 18.6312 35.7497 18.7855 34.7219 19.2936C34.9601 20.8701 36.4056 22.3242 37.4158 22.3242C38.426 22.3242 38.9104 20.6899 38.7627 19.5461Z" fill="#FBBF24"/>
<path d="M42.5509 25.439C42.4774 24.7284 40.4096 24.8437 39.5203 25.2706C39.6764 26.4939 40.6814 27.7417 41.5407 27.7119C42.4 27.6821 42.6428 26.3272 42.5509 25.439Z" fill="#FBBF24"/>
</g>
<path id="contrast_2" d="M47.0127 44.8853C47.0127 46.6055 36.6856 48 23.9465 48C11.2074 48 0.880371 46.6055 0.880371 44.8853C0.880371 43.165 11.2074 41.7705 23.9465 41.7705C36.6856 41.7705 47.0127 43.165 47.0127 44.8853Z" fill="#CBD5E1"/>
<g id="dino">
<path fill-rule="evenodd" clip-rule="evenodd" d="M24.7884 4.64577C24.7603 3.66364 24.2808 1.54354 23.0205 0.773344C21.5052 -0.152684 19.0639 -0.910331 12.1609 2.62537C4.88032 6.35447 2.3437 11.9697 3.40589 18.536C4.3319 24.2604 7.86759 28.8063 9.46707 30.5741C10.1043 31.2785 10.6481 31.8359 11.1835 32.3847C11.9918 33.2133 12.7811 34.0223 13.8446 35.2884C13.898 35.352 13.9512 35.4151 14.004 35.4778C15.6977 37.4886 17.0435 39.0865 17.0435 44.801C17.1277 45.6429 18.3063 47.0403 22.3471 45.8954C23.4414 45.5853 25.546 42.5281 24.7042 38.9083L32.1965 38.0664V44.801C32.6735 45.4745 34.5705 46.451 37.3317 45.6429C39.3308 44.8432 39.3254 42.3029 39.3199 39.6503C39.3184 38.9519 39.317 38.2456 39.3521 37.5613C41.4286 38.2909 46.7096 38.8914 49.2014 35.7935C51.6933 32.6955 49.3979 28.0206 48.1912 26.0283C48.2193 27.7961 47.4673 31.2644 44.2347 30.9951C40.607 30.6927 38.4999 26.9979 36.9246 24.2355C36.7452 23.9209 36.5727 23.6184 36.4056 23.3344C35.5638 21.9033 32.3649 17.9467 25.1251 18.7885C22.4393 19.1008 20.3935 20.06 18.6549 20.8752C17.1784 21.5675 15.9235 22.1558 14.6864 22.1558C12.3562 22.1558 8.79359 18.4518 10.6456 13.1482C12.4977 7.84472 17.717 7.25543 20.6634 8.43399C21.336 8.70303 21.9333 8.97754 22.4668 9.22274C24.2704 10.0517 25.345 10.5455 26.1353 9.36002C27.819 6.83452 26.2195 5.40342 24.7884 4.64577ZM22.5154 5.40339C23.1198 5.40339 23.6098 4.91342 23.6098 4.30901C23.6098 3.70461 23.1198 3.21464 22.5154 3.21464C21.911 3.21464 21.421 3.70461 21.421 4.30901C21.421 4.91342 21.911 5.40339 22.5154 5.40339Z" fill="#0F172A"/>
<path d="M15.1073 39.8342C14.9053 37.4098 12.3293 35.0639 11.0665 34.194C11.0104 35.2042 10.8477 37.5108 10.6456 38.6557C10.3931 40.0868 9.55124 42.8648 10.0563 44.0434C10.5614 45.222 14.7706 45.4745 15.1073 44.8852C15.4441 44.2959 15.3599 42.8648 15.1073 39.8342Z" fill="#0F172A"/>
<path d="M31.1863 39.0766L26.1353 39.6659C26.0511 40.9006 25.8996 43.5551 25.9669 44.2959C26.0511 45.222 28.745 44.8852 29.7552 44.7169C30.5633 44.5822 30.7161 43.7499 30.8496 42.949C31.1863 40.9286 31.1863 39.0766 31.1863 39.0766Z" fill="#0F172A"/>
</g>
</g>
</svg>
