<svg width="149" height="48" viewBox="0 0 149 48" fill="none" xmlns="http://www.w3.org/2000/svg">
<path d="M16.7068 14.9161C15.4946 14.6467 14.1813 18.4518 14.3497 19.9671C16.4542 20.388 19.1787 19.1252 19.4848 18.4518C19.9058 17.5258 18.2221 15.2528 16.7068 14.9161Z" fill="#FBBF24"/>
<path d="M23.9465 13.485C23.0465 13.2824 21.4644 16.3019 21.5894 17.4416C23.152 17.7582 25.908 17.1905 26.1353 16.6839C26.4478 15.9874 25.0716 13.7382 23.9465 13.485Z" fill="#FBBF24"/>
<path d="M32.303 14.4952C31.706 13.7917 28.8258 15.7826 28.2399 16.7681C29.2974 17.9612 31.9627 18.467 32.449 18.1992C33.1177 17.831 33.0492 15.3745 32.303 14.4952Z" fill="#FBBF24"/>
<path d="M38.7627 19.5461C38.6446 18.6312 35.7498 18.7855 34.722 19.2936C34.9602 20.8701 36.4056 22.3242 37.4158 22.3242C38.426 22.3242 38.9105 20.6899 38.7627 19.5461Z" fill="#FBBF24"/>
<path d="M42.551 25.439C42.4775 24.7284 40.4097 24.8437 39.5204 25.2706C39.6765 26.4939 40.6815 27.7417 41.5408 27.7119C42.4001 27.6821 42.6429 26.3272 42.551 25.439Z" fill="#FBBF24"/>
<path d="M47.0127 44.8853C47.0127 46.6055 36.6856 48 23.9465 48C11.2075 48 0.880402 46.6055 0.880402 44.8853C0.880402 43.165 11.2075 41.7705 23.9465 41.7705C36.6856 41.7705 47.0127 43.165 47.0127 44.8853Z" fill="#CBD5E1"/>
<path fill-rule="evenodd" clip-rule="evenodd" d="M24.7884 4.64577C24.7603 3.66364 24.2808 1.54354 23.0205 0.773344C21.5052 -0.152684 19.0639 -0.910331 12.1609 2.62537C4.88032 6.35447 2.3437 11.9697 3.40589 18.536C4.3319 24.2604 7.86759 28.8063 9.46707 30.5741C10.1043 31.2785 10.6481 31.8359 11.1835 32.3847C11.9918 33.2133 12.7811 34.0223 13.8446 35.2884C13.898 35.352 13.9512 35.4151 14.004 35.4778C15.6977 37.4886 17.0435 39.0865 17.0435 44.801C17.1277 45.6429 18.3063 47.0403 22.3471 45.8954C23.4414 45.5853 25.546 42.5281 24.7042 38.9083L32.1965 38.0664V44.801C32.6735 45.4745 34.5705 46.451 37.3317 45.6429C39.3308 44.8432 39.3254 42.3029 39.3199 39.6503C39.3184 38.9519 39.317 38.2456 39.3521 37.5613C41.4286 38.2909 46.7096 38.8914 49.2014 35.7935C51.6933 32.6955 49.3979 28.0206 48.1912 26.0283C48.2193 27.7961 47.4673 31.2644 44.2347 30.9951C40.607 30.6927 38.4999 26.9979 36.9246 24.2355C36.7452 23.9209 36.5727 23.6184 36.4056 23.3344C35.5638 21.9033 32.3649 17.9467 25.1251 18.7885C22.4393 19.1008 20.3935 20.06 18.6549 20.8752C17.1784 21.5675 15.9235 22.1558 14.6864 22.1558C12.3562 22.1558 8.79359 18.4518 10.6456 13.1482C12.4977 7.84472 17.717 7.25543 20.6634 8.43399C21.336 8.70303 21.9333 8.97754 22.4668 9.22274C24.2704 10.0517 25.345 10.5455 26.1353 9.36002C27.819 6.83452 26.2195 5.40342 24.7884 4.64577ZM22.5154 5.40339C23.1198 5.40339 23.6098 4.91342 23.6098 4.30901C23.6098 3.70461 23.1198 3.21464 22.5154 3.21464C21.911 3.21464 21.421 3.70461 21.421 4.30901C21.421 4.91342 21.911 5.40339 22.5154 5.40339Z" fill="#0F172A"/>
<path d="M15.1073 39.8342C14.9053 37.4098 12.3293 35.0639 11.0665 34.194C11.0104 35.2042 10.8477 37.5108 10.6456 38.6557C10.3931 40.0868 9.55124 42.8648 10.0563 44.0434C10.5614 45.222 14.7706 45.4745 15.1073 44.8852C15.4441 44.2959 15.3599 42.8648 15.1073 39.8342Z" fill="#0F172A"/>
<path d="M31.1863 39.0766L26.1353 39.6659C26.0511 40.9006 25.8996 43.5551 25.9669 44.2959C26.0511 45.222 28.745 44.8852 29.7552 44.7169C30.5633 44.5822 30.7161 43.7499 30.8496 42.949C31.1863 40.9286 31.1863 39.0766 31.1863 39.0766Z" fill="#0F172A"/>
<path d="M66.18 24H61.46C60.8067 24 60.3667 23.9533 60.14 23.86C59.9133 23.7667 59.8 23.6133 59.8 23.4V10.78C59.8 10.4333 59.9467 10.1867 60.24 10.04C60.5333 9.87999 61.04 9.79999 61.76 9.79999H66.26C68.82 9.79999 70.5867 10.3067 71.56 11.32C72.5333 12.32 73.02 14.1467 73.02 16.8C73.02 19.4533 72.5133 21.32 71.5 22.4C70.4867 23.4667 68.7133 24 66.18 24ZM66.02 12.78C65.7 12.78 65.4867 12.8067 65.38 12.86V20.94L66.14 21.02C66.54 21.02 66.84 20.7 67.04 20.06C67.2533 19.42 67.36 18.3133 67.36 16.74C67.36 15.1667 67.2533 14.1133 67.04 13.58C66.8267 13.0467 66.4867 12.78 66.02 12.78Z" fill="#0F172A"/>
<path d="M79.8289 13.66V23.52C79.8289 23.6667 79.4422 23.7867 78.6689 23.88C77.9089 23.96 77.1222 24 76.3089 24C75.5089 24 74.9889 23.9667 74.7489 23.9C74.5222 23.82 74.4089 23.6933 74.4089 23.52V14.02C74.4089 13.7267 74.7822 13.44 75.5289 13.16C76.2889 12.8667 77.1156 12.72 78.0089 12.72C79.2222 12.72 79.8289 13.0333 79.8289 13.66ZM77.1089 8.39999C77.9889 8.39999 78.6756 8.53333 79.1689 8.79999C79.6756 9.05333 79.9289 9.51999 79.9289 10.2C79.9289 11.4 78.9956 12 77.1289 12C75.2622 12 74.3289 11.4 74.3289 10.2C74.3289 8.99999 75.2556 8.39999 77.1089 8.39999Z" fill="#0F172A"/>
<path d="M93.3811 17.36V23.52C93.3811 23.6667 93.0011 23.7867 92.2411 23.88C91.4811 23.96 90.6944 24 89.8811 24C89.0811 24 88.5611 23.9667 88.3211 23.9C88.0944 23.82 87.9811 23.6933 87.9811 23.52V17.16C87.9811 16.56 87.9544 16.1667 87.9011 15.98C87.8611 15.7933 87.8211 15.6267 87.7811 15.48C87.6878 15.2267 87.5211 15.1 87.2811 15.1C86.9078 15.1 86.7211 15.28 86.7211 15.64V23.52C86.7211 23.6667 86.3411 23.7867 85.5811 23.88C84.8344 23.96 84.0544 24 83.2411 24C82.4411 24 81.9211 23.9667 81.6811 23.9C81.4411 23.82 81.3211 23.6933 81.3211 23.52V13.66C81.3211 13.38 81.7011 13.1 82.4611 12.82C83.2344 12.54 84.0478 12.4 84.9011 12.4C85.7544 12.4 86.2344 12.6467 86.3411 13.14L86.5211 14.02H86.6611C87.0478 13.2467 87.7144 12.7067 88.6611 12.4C89.0478 12.28 89.4744 12.22 89.9411 12.22C91.2878 12.22 92.1944 12.6267 92.6611 13.44C93.1411 14.24 93.3811 15.5467 93.3811 17.36Z" fill="#0F172A"/>
<path d="M100.938 24.18C99.9381 24.18 99.0781 24.0933 98.3581 23.92C97.6381 23.7467 96.9848 23.44 96.3981 23C95.1848 22.12 94.5781 20.48 94.5781 18.08C94.5781 15.9467 95.1981 14.42 96.4381 13.5C97.5981 12.6467 99.0981 12.22 100.938 12.22C101.725 12.22 102.398 12.26 102.958 12.34C103.518 12.4067 104.085 12.56 104.658 12.8C105.245 13.04 105.711 13.3667 106.058 13.78C106.418 14.1933 106.711 14.7667 106.938 15.5C107.165 16.22 107.278 17.08 107.278 18.08C107.278 20.1067 106.705 21.6333 105.558 22.66C104.411 23.6733 102.871 24.18 100.938 24.18ZM100.238 20.28C100.331 20.76 100.425 21.0467 100.518 21.14C100.625 21.2333 100.758 21.28 100.918 21.28C101.091 21.28 101.225 21.2333 101.318 21.14C101.425 21.0467 101.518 20.76 101.598 20.28C101.691 19.8 101.738 19.2 101.738 18.48C101.738 17.7467 101.718 17.1867 101.678 16.8C101.651 16.4 101.611 16.0933 101.558 15.88C101.518 15.6667 101.458 15.5 101.378 15.38C101.258 15.2067 101.111 15.12 100.938 15.12C100.778 15.12 100.645 15.1733 100.538 15.28C100.431 15.3733 100.331 15.6667 100.238 16.16C100.145 16.64 100.098 17.3267 100.098 18.22C100.098 19.1133 100.145 19.8 100.238 20.28Z" fill="#0F172A"/>
<path d="M68.3 43.52C68.3 43.6667 67.8867 43.7867 67.06 43.88C66.2467 43.96 65.4267 44 64.6 44C63.7867 44 63.2667 43.9667 63.04 43.9C62.8267 43.82 62.72 43.6933 62.72 43.52V34.92H59.94C59.7933 34.92 59.6667 34.7333 59.56 34.36C59.4533 33.9867 59.4 33.4333 59.4 32.7C59.4 31.9533 59.48 31.2867 59.64 30.7C59.8 30.1 60.0133 29.8 60.28 29.8H71.1C71.3 29.8 71.4333 29.9867 71.5 30.36C71.58 30.7333 71.62 31.2733 71.62 31.98C71.62 32.6867 71.5467 33.3533 71.4 33.98C71.2533 34.6067 71.0533 34.92 70.8 34.92H68.3V43.52Z" fill="#0F172A"/>
<path d="M78.2273 33.66V43.52C78.2273 43.6667 77.8407 43.7867 77.0673 43.88C76.3073 43.96 75.5207 44 74.7073 44C73.9073 44 73.3873 43.9667 73.1473 43.9C72.9207 43.82 72.8073 43.6933 72.8073 43.52V34.02C72.8073 33.7267 73.1807 33.44 73.9273 33.16C74.6873 32.8667 75.514 32.72 76.4073 32.72C77.6207 32.72 78.2273 33.0333 78.2273 33.66ZM75.5073 28.4C76.3873 28.4 77.074 28.5333 77.5673 28.8C78.074 29.0533 78.3273 29.52 78.3273 30.2C78.3273 31.4 77.394 32 75.5273 32C73.6607 32 72.7273 31.4 72.7273 30.2C72.7273 29 73.654 28.4 75.5073 28.4Z" fill="#0F172A"/>
<path d="M84.9795 39.48C84.9795 40.3467 85.3929 40.78 86.2195 40.78C86.6995 40.78 87.3262 40.62 88.0995 40.3C88.8729 39.9667 89.2795 39.8 89.3195 39.8C89.5729 39.8 89.9062 40.18 90.3195 40.94C90.7329 41.7 90.9395 42.26 90.9395 42.62C90.9395 43.14 90.4062 43.5333 89.3395 43.8C88.2729 44.0667 87.2262 44.2 86.1995 44.2C85.1862 44.2 84.3329 44.12 83.6395 43.96C82.9595 43.8 82.3995 43.6 81.9595 43.36C81.5329 43.1067 81.1529 42.8 80.8195 42.44C80.4995 42.08 80.2595 41.74 80.0995 41.42C79.9395 41.0867 79.8129 40.72 79.7195 40.32C79.5862 39.7333 79.5195 39.1267 79.5195 38.5C79.5195 36.0733 80.1529 34.4 81.4195 33.48C82.0462 33.0133 82.7462 32.6867 83.5195 32.5C84.2929 32.3133 85.2062 32.22 86.2595 32.22C89.6329 32.22 91.3195 33.3933 91.3195 35.74C91.3195 38.2333 89.4262 39.48 85.6395 39.48H84.9795ZM84.9395 36.56V37.88C85.3262 37.88 85.6395 37.7267 85.8795 37.42C86.1329 37.1133 86.2595 36.74 86.2595 36.3C86.2595 35.5 86.0529 35.1 85.6395 35.1C85.1729 35.1 84.9395 35.5867 84.9395 36.56Z" fill="#0F172A"/>
<path d="M104.572 37.36V43.52C104.572 43.6667 104.192 43.7867 103.432 43.88C102.672 43.96 101.886 44 101.072 44C100.272 44 99.7525 43.9667 99.5125 43.9C99.2858 43.82 99.1725 43.6933 99.1725 43.52V37.16C99.1725 36.56 99.1458 36.1667 99.0925 35.98C99.0525 35.7933 99.0125 35.6267 98.9725 35.48C98.8792 35.2267 98.7125 35.1 98.4725 35.1C98.0992 35.1 97.9125 35.28 97.9125 35.64V43.52C97.9125 43.6667 97.5325 43.7867 96.7725 43.88C96.0258 43.96 95.2458 44 94.4325 44C93.6325 44 93.1125 43.9667 92.8725 43.9C92.6325 43.82 92.5125 43.6933 92.5125 43.52V33.66C92.5125 33.38 92.8925 33.1 93.6525 32.82C94.4258 32.54 95.2392 32.4 96.0925 32.4C96.9458 32.4 97.4258 32.6467 97.5325 33.14L97.7125 34.02H97.8525C98.2392 33.2467 98.9058 32.7067 99.8525 32.4C100.239 32.28 100.666 32.22 101.132 32.22C102.479 32.22 103.386 32.6267 103.852 33.44C104.332 34.24 104.572 35.5467 104.572 37.36Z" fill="#0F172A"/>
<path d="M109.73 44.18C109.236 44.18 108.776 44.1067 108.35 43.96C107.923 43.8133 107.57 43.6333 107.29 43.42C107.023 43.2067 106.79 42.92 106.59 42.56C106.39 42.2 106.236 41.86 106.13 41.54C106.023 41.2067 105.943 40.8 105.89 40.32C105.81 39.6133 105.77 38.8067 105.77 37.9C105.77 36.0467 106.11 34.64 106.79 33.68C107.47 32.7067 108.403 32.22 109.59 32.22C110.803 32.22 111.683 32.5067 112.23 33.08C112.35 33.2133 112.443 33.3733 112.51 33.56H112.67L112.43 32.18V29.68C112.43 29.3867 112.803 29.1 113.55 28.82C114.296 28.54 115.103 28.4 115.97 28.4C116.876 28.4 117.456 28.5733 117.71 28.92C117.803 29.0533 117.85 29.1867 117.85 29.32V43.52C117.85 43.6667 117.476 43.7867 116.73 43.88C115.996 43.96 115.283 44 114.59 44C113.91 44 113.47 43.98 113.27 43.94C113.083 43.8867 112.963 43.8333 112.91 43.78C112.87 43.7267 112.843 43.64 112.83 43.52L112.67 42.38H112.51C112.39 42.8467 112.15 43.24 111.79 43.56C111.336 43.9733 110.65 44.18 109.73 44.18ZM111.97 41.26C112.183 41.26 112.343 41.1267 112.45 40.86V35.52C112.45 35.3867 112.376 35.2867 112.23 35.22C112.096 35.14 111.976 35.1 111.87 35.1C111.416 35.1 111.19 36.14 111.19 38.22C111.19 39.3267 111.25 40.1133 111.37 40.58C111.503 41.0333 111.703 41.26 111.97 41.26Z" fill="#0F172A"/>
<path d="M123.051 44.18C121.837 44.18 120.884 43.8933 120.191 43.32C119.911 43.08 119.664 42.7267 119.451 42.26C119.251 41.7933 119.151 41.2467 119.151 40.62C119.151 39.9933 119.297 39.4467 119.591 38.98C119.897 38.5133 120.264 38.1533 120.691 37.9C121.117 37.6467 121.617 37.44 122.191 37.28C123.057 37.0533 124.011 36.94 125.051 36.94H125.711C125.711 36.3933 125.524 36.0067 125.151 35.78C124.991 35.6867 124.744 35.64 124.411 35.64C124.091 35.64 123.697 35.7267 123.231 35.9C122.777 36.0733 122.397 36.2533 122.091 36.44C121.784 36.6133 121.577 36.7 121.471 36.7C121.231 36.7 120.904 36.3867 120.491 35.76C120.077 35.12 119.871 34.54 119.871 34.02C119.871 33.8467 120.117 33.62 120.611 33.34C121.104 33.06 121.797 32.8067 122.691 32.58C123.597 32.34 124.477 32.22 125.331 32.22C126.184 32.22 126.917 32.2933 127.531 32.44C128.157 32.5733 128.664 32.74 129.051 32.94C129.451 33.14 129.784 33.4067 130.051 33.74C130.331 34.0733 130.537 34.3733 130.671 34.64C130.817 34.9067 130.924 35.2533 130.991 35.68C131.084 36.1733 131.131 36.78 131.131 37.5V43.52C131.131 43.6667 130.771 43.7867 130.051 43.88C129.344 43.96 128.637 44 127.931 44C127.237 44 126.784 43.98 126.571 43.94C126.371 43.9 126.251 43.8533 126.211 43.8C126.171 43.7467 126.137 43.6533 126.111 43.52L125.951 42.38H125.791C125.457 43.58 124.544 44.18 123.051 44.18ZM125.731 40.86V38.52C125.384 38.52 125.104 38.6667 124.891 38.96C124.677 39.2533 124.571 39.5867 124.571 39.96C124.571 40.84 124.771 41.28 125.171 41.28C125.344 41.28 125.477 41.24 125.571 41.16C125.677 41.0667 125.731 40.9667 125.731 40.86Z" fill="#0F172A"/>
</svg>
